<?xml version="1.0" encoding="UTF-8" standalone="no"?>
<!-- Created with Inkscape (http://www.inkscape.org/) -->

<svg
   xmlns:dc="http://purl.org/dc/elements/1.1/"
   xmlns:cc="http://creativecommons.org/ns#"
   xmlns:rdf="http://www.w3.org/1999/02/22-rdf-syntax-ns#"
   xmlns:svg="http://www.w3.org/2000/svg"
   xmlns="http://www.w3.org/2000/svg"
   xmlns:sodipodi="http://sodipodi.sourceforge.net/DTD/sodipodi-0.dtd"
   xmlns:inkscape="http://www.inkscape.org/namespaces/inkscape"
   width="210mm"
   height="297mm"
   viewBox="0 0 744.09448819 1052.3622047"
   id="svg2"
   version="1.1"
   inkscape:version="0.91 r13725"
   sodipodi:docname="pysheaf.svg">
  <defs
     id="defs4" />
  <sodipodi:namedview
     id="base"
     pagecolor="#ffffff"
     bordercolor="#666666"
     borderopacity="1.0"
     inkscape:pageopacity="0.0"
     inkscape:pageshadow="2"
     inkscape:zoom="1.4"
     inkscape:cx="293.50263"
     inkscape:cy="576.24039"
     inkscape:document-units="px"
     inkscape:current-layer="layer1"
     showgrid="false"
     inkscape:window-width="1855"
     inkscape:window-height="1056"
     inkscape:window-x="65"
     inkscape:window-y="24"
     inkscape:window-maximized="1" />
  <metadata
     id="metadata7">
    <rdf:RDF>
      <cc:Work
         rdf:about="">
        <dc:format>image/svg+xml</dc:format>
        <dc:type
           rdf:resource="http://purl.org/dc/dcmitype/StillImage" />
        <dc:title></dc:title>
      </cc:Work>
    </rdf:RDF>
  </metadata>
  <g
     inkscape:label="Layer 1"
     inkscape:groupmode="layer"
     id="layer1">
    <path
       id="path4326"
       style="fill:#008a00;fill-opacity:1;fill-rule:evenodd;stroke:#000000;stroke-width:1px;stroke-linecap:butt;stroke-linejoin:miter;stroke-opacity:1"
       d="M 413.98488,526.08562 C 375.95462,480.64929 293.37465,489.26168 231.57747,488.69709 202.71138,485.36171 172.23325,468.80974 178.74012,435.79632 l 39.9579,15.96707 c 6.30978,8.8775 51.90754,7.08627 79.22142,5.44384 45.95379,1.11313 91.28146,4.93703 135.71333,26.73083 l -19.47023,41.37705"
       inkscape:connector-curvature="0"
       sodipodi:nodetypes="ccccccc" />
    <path
       style="fill:#008a00;fill-opacity:1;fill-rule:evenodd;stroke:#000000;stroke-width:1px;stroke-linecap:butt;stroke-linejoin:miter;stroke-opacity:1"
       d="M 463.05663,367.48697 C 497.359,328.3402 441.2023,291.15619 401.45108,297.75035 323.67413,296.72187 209.8711,317.71192 147.149,323.33781 c -15.35891,1.36592 -32.16594,-7.94281 -51.719368,6.16202 -16.256353,4.12099 -43.771518,47.06423 -35.208607,64.36046 14.669787,4.30051 22.018534,-2.02114 45.130475,-15.50327 3.98722,-2.66829 8.79498,-8.86312 8.79498,-8.86312 0,0 0.6495,11.10536 -7.13304,14.95928 -11.163353,6.30506 -31.34388,16.26107 -11.619711,18.21611 28.035001,-15.33717 52.320291,-40.78092 53.630731,-41.72759 16.91273,-12.0901 69.67422,-15.58997 96.53631,-19.32444 26.86209,-3.73447 44.32482,-8.03111 66.90505,-8.40752 28.25852,-5.78962 57.33669,-6.95954 85.76235,-1.42707 20.39413,-2.57027 40.30714,8.65619 26.54097,28.11996"
       id="path3418"
       inkscape:connector-curvature="0"
       sodipodi:nodetypes="cccccccccczccc" />
    <path
       style="fill:none;fill-rule:evenodd;stroke:#c9c676;stroke-width:34.28751373;stroke-linecap:round;stroke-linejoin:miter;stroke-miterlimit:4;stroke-dasharray:none;stroke-opacity:1"
       d="M 251.18415,615.96614 C 227.63802,540.19678 239.63499,459.06479 240.8125,381.22046 247.63281,315.02404 294.96805,269.05885 341.08773,227.05742"
       id="path3372-9-7"
       inkscape:connector-curvature="0" />
    <path
       style="fill:none;fill-rule:evenodd;stroke:#fcfebf;stroke-width:20.16912079;stroke-linecap:round;stroke-linejoin:miter;stroke-miterlimit:4;stroke-dasharray:none;stroke-opacity:1"
       d="m 383.83766,640.21997 c -43.9062,-64.7858 -59.5443,-149.63374 -44.91504,-226.18706 20.3343,-93.6606 87.93991,-165.46538 155.02167,-229.39174"
       id="path3356"
       inkscape:connector-curvature="0" />
    <path
       style="fill:none;fill-rule:evenodd;stroke:#cbd718;stroke-width:8.49999962;stroke-linecap:round;stroke-linejoin:miter;stroke-opacity:1;stroke-miterlimit:4;stroke-dasharray:none"
       d="M 333.35034,631.12859 C 304.58911,552.73602 290.61475,456.15906 345.48329,385.52893 387.12433,328.75525 440.60474,279.65491 496.99505,238.17878"
       id="path3358"
       inkscape:connector-curvature="0" />
    <path
       style="fill:none;fill-rule:evenodd;stroke:#99aa01;stroke-width:34.28751373;stroke-linecap:round;stroke-linejoin:miter;stroke-miterlimit:4;stroke-dasharray:none;stroke-opacity:1"
       d="M 292.92393,614.96615 C 272.7174,485.59345 321.22935,342.03888 434.16728,269.11889 449.87625,257.0861 466.01487,245.58804 482.83261,235.1488"
       id="path3362"
       inkscape:connector-curvature="0" />
    <path
       style="fill:none;fill-rule:evenodd;stroke:#f1cc11;stroke-width:27.56446838;stroke-linecap:round;stroke-linejoin:miter;stroke-miterlimit:4;stroke-dasharray:none;stroke-opacity:1"
       d="m 380.18509,620.01692 c 35.41502,-52.95088 12.42341,-119.79494 1.12216,-176.88351 -20.84738,-80.47922 -77.42628,-146.39335 -147.2128,-189.59472 -27.93862,-21.259 -69.00298,-43.5448 -94.32566,-54.75539"
       id="path3364"
       inkscape:connector-curvature="0" />
    <path
       style="fill:none;fill-rule:evenodd;stroke:#cca747;stroke-width:5.8;stroke-linecap:round;stroke-linejoin:miter;stroke-opacity:1;stroke-miterlimit:4;stroke-dasharray:none"
       d="m 394.96965,601.83417 c -40.4342,-72.99101 -45.79603,-166.66989 -1.14474,-239.1866 21.07146,-36.18886 45.1702,-82.12155 85.99755,-98.20435"
       id="path3368"
       inkscape:connector-curvature="0" />
    <path
       style="fill:none;fill-rule:evenodd;stroke:#bebc00;stroke-width:6.0999999;stroke-linecap:round;stroke-linejoin:miter;stroke-miterlimit:4;stroke-dasharray:none;stroke-opacity:1"
       d="m 282.72088,606.88493 c -17.04958,-89.91935 -48.2657,-185.67658 -9.20665,-274.66076 18.34398,-44.90952 52.89125,-81.7348 93.04931,-108.18705"
       id="path3370"
       inkscape:connector-curvature="0" />
    <path
       style="fill:none;fill-rule:evenodd;stroke:#cbd39a;stroke-width:34.28751373;stroke-linecap:round;stroke-linejoin:miter;stroke-miterlimit:4;stroke-dasharray:none;stroke-opacity:1"
       d="M 293.06607,605.79356 C 269.51994,530.0242 281.51691,448.89221 282.69442,371.04788 289.51473,304.85145 336.84997,258.88626 382.96965,216.88483"
       id="path3372"
       inkscape:connector-curvature="0" />
    <path
       style="fill:none;fill-rule:evenodd;stroke:#c9c676;stroke-width:20.16912079;stroke-linecap:round;stroke-linejoin:miter;stroke-miterlimit:4;stroke-dasharray:none;stroke-opacity:1"
       d="m 365.83766,640.21997 c -43.9062,-64.7858 -59.5443,-149.63374 -44.91504,-226.18706 20.3343,-93.6606 87.93991,-165.46538 155.02167,-229.39174"
       id="path3356-2"
       inkscape:connector-curvature="0" />
    <path
       style="fill:none;fill-rule:evenodd;stroke:#c9c676;stroke-width:8.5;stroke-linecap:round;stroke-linejoin:miter;stroke-miterlimit:4;stroke-dasharray:none;stroke-opacity:1"
       d="M 353.35034,631.12859 C 324.58911,552.73602 310.61475,456.15906 365.48329,385.52893 407.12433,328.75525 460.60474,279.65491 516.99505,238.17878"
       id="path3358-9"
       inkscape:connector-curvature="0" />
    <path
       style="fill:none;fill-rule:evenodd;stroke:#c9c676;stroke-width:34.28751373;stroke-linecap:round;stroke-linejoin:miter;stroke-miterlimit:4;stroke-dasharray:none;stroke-opacity:1"
       d="M 312.92393,614.96615 C 292.7174,485.59345 341.22935,342.03888 454.16728,269.11889 469.87625,257.0861 486.01487,245.58804 502.83261,235.1488"
       id="path3362-1"
       inkscape:connector-curvature="0" />
    <path
       style="fill:none;fill-rule:evenodd;stroke:#c9c676;stroke-width:27.56446838;stroke-linecap:round;stroke-linejoin:miter;stroke-miterlimit:4;stroke-dasharray:none;stroke-opacity:1"
       d="m 356.18509,642.01692 c 35.41502,-52.95088 12.42341,-119.79494 1.12216,-176.88351 -20.84738,-80.47922 -77.42628,-146.39335 -147.2128,-189.59472 -27.93862,-21.259 -69.00298,-43.5448 -94.32566,-54.75539"
       id="path3364-2"
       inkscape:connector-curvature="0" />
    <path
       style="fill:none;fill-rule:evenodd;stroke:#c9c676;stroke-width:5.80000019;stroke-linecap:round;stroke-linejoin:miter;stroke-miterlimit:4;stroke-dasharray:none;stroke-opacity:1"
       d="m 410.96965,601.83417 c -40.4342,-72.99101 -45.79603,-166.66989 -1.14474,-239.1866 21.07146,-36.18886 45.1702,-82.12155 85.99755,-98.20435"
       id="path3368-7"
       inkscape:connector-curvature="0" />
    <path
       style="fill:none;fill-rule:evenodd;stroke:#c9c676;stroke-width:20.50527191;stroke-linecap:round;stroke-linejoin:miter;stroke-miterlimit:4;stroke-dasharray:none;stroke-opacity:1"
       d="m 348.54786,606.88493 c 17.04958,-89.91935 48.2657,-185.67658 9.20665,-274.66076 -18.34398,-44.90952 -52.89125,-81.7348 -93.04931,-108.18705"
       id="path3370-0"
       inkscape:connector-curvature="0" />
    <path
       style="fill:none;fill-rule:evenodd;stroke:#c9c676;stroke-width:34.28751373;stroke-linecap:round;stroke-linejoin:miter;stroke-miterlimit:4;stroke-dasharray:none;stroke-opacity:1"
       d="M 327.06607,597.79356 C 303.51994,522.0242 315.51691,440.89221 316.69442,363.04788 323.51473,296.85145 370.84997,250.88626 416.96965,208.88483"
       id="path3372-9"
       inkscape:connector-curvature="0" />
    <ellipse
       style="fill:#c80000;fill-opacity:1;stroke:#000000;stroke-width:1;stroke-linecap:round;stroke-miterlimit:4;stroke-dasharray:none;stroke-opacity:1"
       id="path4361"
       cx="94.701797"
       cy="350.55875"
       rx="5.3033009"
       ry="5.8083773" />
    <path
       style="fill:none;fill-rule:evenodd;stroke:#f1cc11;stroke-width:27.56446838;stroke-linecap:round;stroke-linejoin:miter;stroke-miterlimit:4;stroke-dasharray:none;stroke-opacity:1"
       d="m 322.66426,639.82379 c -35.41502,-52.95088 -12.42341,-119.79494 -1.12216,-176.88351 20.84738,-80.47922 77.42628,-146.39335 147.2128,-189.59471 27.93862,-21.259 69.00298,-43.5448 94.32566,-54.75539"
       id="path3364-0"
       inkscape:connector-curvature="0" />
    <path
       style="fill:none;fill-rule:evenodd;stroke:#bebc00;stroke-width:20.50527191;stroke-linecap:round;stroke-linejoin:miter;stroke-miterlimit:4;stroke-dasharray:none;stroke-opacity:1"
       d="M 328.72517,626.6918 C 311.67559,536.77245 280.45947,441.01522 319.51852,352.03104 337.8625,307.12153 372.40977,270.29625 412.56783,243.844"
       id="path3370-6"
       inkscape:connector-curvature="0" />
    <path
       style="fill:none;fill-rule:evenodd;stroke:#cbd39a;stroke-width:10.19999981;stroke-linecap:round;stroke-linejoin:miter;stroke-miterlimit:4;stroke-dasharray:none;stroke-opacity:1"
       d="M 296.50932,615.60043 C 319.81799,540.09822 298.58513,469.35659 306.88097,380.85475 300.06066,314.65832 252.72542,268.69314 206.60574,226.69171"
       id="path3372-2"
       inkscape:connector-curvature="0"
       sodipodi:nodetypes="ccc" />
    <path
       style="fill:none;fill-rule:evenodd;stroke:#c9c676;stroke-width:27.56446838;stroke-linecap:round;stroke-linejoin:miter;stroke-miterlimit:4;stroke-dasharray:none;stroke-opacity:1"
       d="m 342.66426,639.82379 c -35.41502,-52.95088 -12.42341,-119.79494 -1.12216,-176.88351 20.84738,-80.47922 77.42628,-146.39335 147.2128,-189.59471 27.93862,-21.259 69.00298,-43.5448 94.32566,-54.75539"
       id="path3364-2-6"
       inkscape:connector-curvature="0" />
    <path
       style="fill:none;fill-rule:evenodd;stroke:#c9c676;stroke-width:34.28751373;stroke-linecap:round;stroke-linejoin:miter;stroke-miterlimit:4;stroke-dasharray:none;stroke-opacity:1"
       d="M 363.07036,617.60043 C 339.52423,541.83107 351.5212,460.69908 352.69871,382.85475 359.51902,316.65832 406.85426,270.69314 452.97394,228.69171"
       id="path3372-9-8"
       inkscape:connector-curvature="0" />
    <path
       id="path4352"
       style="fill:#008a00;fill-rule:evenodd;stroke:none;stroke-width:1px;stroke-linecap:butt;stroke-linejoin:miter;stroke-opacity:1;fill-opacity:1"
       d="m 321.354,404.83368 c 44.72091,-19.90631 101.4514,-10.44954 141.78146,-37.31981 l -28.61593,-18.33654 c 0,0 4.39172,9.21007 -32.59009,19.24659 -49.27065,11.73941 -104.16695,5.7399 -153.20742,18.18539 -26.03632,10.17892 -61.42202,18.63356 -70.18397,49.01695 41.46195,25.30737 41.56858,25.7306 41.56858,25.7306 -14.64405,-49.49937 72.73169,-41.597 101.24737,-56.52318 z"
       inkscape:connector-curvature="0"
       sodipodi:nodetypes="cccccccc" />
    <path
       style="fill:none;fill-rule:evenodd;stroke:#000000;stroke-width:1px;stroke-linecap:butt;stroke-linejoin:miter;stroke-opacity:1;fill-opacity:1"
       d="m 178.68325,435.67603 c 8.61675,-30.43316 44.00245,-38.8878 70.03877,-49.06672 49.04047,-12.44549 103.93677,-6.44598 153.20742,-18.18539 36.98181,-10.03652 31.93104,-19.12789 31.93104,-19.12789"
       id="path3416" />
    <path
       style="fill:none;fill-rule:evenodd;stroke:#000000;stroke-width:1px;stroke-linecap:butt;stroke-linejoin:miter;stroke-opacity:1;fill-opacity:1"
       d="M 220.21326,461.42297 C 205.46258,411.85749 292.83832,419.75986 321.354,404.83368 366.07491,384.92737 422.8054,394.38414 463.05663,367.48697"
       id="path4330" />
    <path
       style="fill:#008a00;fill-opacity:1;fill-rule:evenodd;stroke:#000000;stroke-width:1px;stroke-linecap:butt;stroke-linejoin:miter;stroke-opacity:1"
       d="m 412.73488,524.65705 c 38.03026,45.43633 -52.29953,54.03424 -84.82595,56.28634 -63.93701,4.8869 -138.9004,-3.55826 -202.41042,5.29968 -19.14765,-2.84323 -77.3287,21.78584 -23.61474,14.78583 57.47351,-8.29214 115.3514,-1.0361 173.03309,0.0647 50.67567,3.05408 74.80969,0.23794 124.98098,-4.97963 55.08467,-8.76092 77.47148,-90.83944 32.76227,-112.67243"
       id="path4320"
       inkscape:connector-curvature="0"
       sodipodi:nodetypes="ccccccc" />
  </g>
</svg>
